# xmcd
#
# Track frame offsets: 
#        150
#        13080
#        28507
#        42952
#        55432
#        68460
#        83625
#        97390
#        110105
#        125692
#        138640
#        150085
#        163430
#        179215
#        189065
#        204372
#        218327
#        230512
#        241027
#        257057
#
# Disc length: 3583 seconds
#
# Revision: 5
# Processed by: cddbd v1.5.2PL0 Copyright (c) Steve Scherf et al.
# Submitted via: ExactAudioCopy v0.99pb5
#
DISCID=150dfd14
DTITLE=Reba McEntire - Oklahoma Girl Disc 2
DYEAR=1994
DGENRE=Country
TTITLE0=Waitin' For The Sun To Shine
TTITLE1=How Does It Feel To Be Free
TTITLE2=Small Two-Bedroom Starter
TTITLE3=Lovin' You, Lovin' Me
TTITLE4=Only You (And You Alone)
TTITLE5=Today All Over Again
TTITLE6=Heart
TTITLE7=I'm Not That Lonely Yet
TTITLE8=Old Man  River (I've Come To Talk Again)
TTITLE9=Whoever's Watchin'
TTITLE10=Can't Even Get The Blues No More
TTITLE11=You're The First Time I've Thought About Leaving
TTITLE12=Muddy Mississippi
TTITLE13=Reasons
TTITLE14=She Came On Like Lightnin'
TTITLE15=One Good Reason
TTITLE16=Why Do We Want (What We Know We Can't Have)
TTITLE17=Pins And Needles
TTITLE18=We'll Waltz In Love Tonight
TTITLE19=There Ain't No Future In This
EXTD=
EXTT0=
EXTT1=
EXTT2=
EXTT3=
EXTT4=
EXTT5=
EXTT6=
EXTT7=
EXTT8=
EXTT9=
EXTT10=
EXTT11=
EXTT12=
EXTT13=
EXTT14=
EXTT15=
EXTT16=
EXTT17=
EXTT18=
EXTT19=
PLAYORDER=
